# xmcd
#
# Track frame offsets: 
#        150
#        24247
#        37762
#        52039
#        67670
#        86472
#        102677
#        114690
#        135735
#        150405
#        166195
#        180720
#        193030
#        205272
#        221225
#
# Disc length: 3115 seconds
#
# Revision: 0
# Processed by: cddbd v1.5.2PL0 Copyright (c) Steve Scherf et al.
# Submitted via: ExactAudioCopy v0.90b4
#
DISCID=c90c290f
DTITLE=Lee Fields - Let's Talk It Over [Deluxe Edition]
DYEAR=2012
DGENRE=R&B
TTITLE0=Wanna Dance
TTITLE1=Let's Talk It Over
TTITLE2=Mighty Mighty Love
TTITLE3=Flim Flam (Instrumental)
TTITLE4=She's A Lovemaker
TTITLE5=You're My Weakness
TTITLE6=Everybody Gonna Give Their Thing Away (Pt. 1)
TTITLE7=Everybody Gonna Give Their Thing Away (Pt. 2)
TTITLE8=Fought For Survival
TTITLE9=Funky Screw
TTITLE10=Take Me Back
TTITLE11=Cutting Out (On Me)
TTITLE12=Bewildered
TTITLE13=The Bull Is Coming
TTITLE14=You Been Cutting Out (On Me)
EXTD=
EXTT0=
EXTT1=
EXTT2=
EXTT3=
EXTT4=
EXTT5=
EXTT6=
EXTT7=
EXTT8=
EXTT9=
EXTT10=
EXTT11=
EXTT12=
EXTT13=
EXTT14=
PLAYORDER=
